<svg width="24" height="24" viewBox="0 0 24 24" fill="none" xmlns="http://www.w3.org/2000/svg">
    <path fill-rule="evenodd" clip-rule="evenodd" d="M18.5 18H18v-2h.5a.5.5 0 0 0 .5-.5v-9a.5.5 0 0 0-.5-.5h-8a.5.5 0 0 0-.5.5V7H8v-.5A2.5 2.5 0 0 1 10.5 4h8A2.5 2.5 0 0 1 21 6.5v9a2.5 2.5 0 0 1-2.5 2.5zM6 10.5a.5.5 0 0 1 .5-.5h8a.5.5 0 0 1 .5.5v9a.5.5 0 0 1-.5.5h-8a.5.5 0 0 1-.5-.5v-9zm-2 0A2.5 2.5 0 0 1 6.5 8h8a2.5 2.5 0 0 1 2.5 2.5v9a2.5 2.5 0 0 1-2.5 2.5h-8A2.5 2.5 0 0 1 4 19.5v-9z" fill="#000"/>
</svg>
